<svg data-v-423bf9ae="" xmlns="http://www.w3.org/2000/svg" viewBox="0 0 317 90" class="iconLeft"><!----><!----><!----><g data-v-423bf9ae="" id="fe801ef6-f171-429a-8fed-9d63af8ff229" fill="#2F1911" transform="matrix(4.319654617459175,0,0,4.319654617459175,97.3951934485108,1.9978413115733744)"><path d="M3.92 13.71L3.92 13.71Q3.05 13.71 2.16 13.52L2.16 13.52L2.16 13.52Q1.26 13.33 0.71 13.08L0.71 13.08L0.90 11.66L0.90 11.66Q1.60 12.00 2.48 12.25L2.48 12.25L2.48 12.25Q3.36 12.50 4.23 12.50L4.23 12.50L4.23 12.50Q5.21 12.50 5.75 12.14L5.75 12.14L5.75 12.14Q6.29 11.79 6.29 11.07L6.29 11.07L6.29 11.07Q6.29 10.54 6.01 10.18L6.01 10.18L6.01 10.18Q5.74 9.83 5.21 9.58L5.21 9.58L5.21 9.58Q4.69 9.34 3.75 9.06L3.75 9.06L3.75 9.06Q2.80 8.78 2.17 8.46L2.17 8.46L2.17 8.46Q1.54 8.13 1.16 7.57L1.16 7.57L1.16 7.57Q0.77 7.01 0.77 6.16L0.77 6.16L0.77 6.16Q0.77 4.97 1.69 4.24L1.69 4.24L1.69 4.24Q2.60 3.51 4.27 3.51L4.27 3.51L4.27 3.51Q5.17 3.51 5.97 3.71L5.97 3.71L5.97 3.71Q6.78 3.91 7.38 4.19L7.38 4.19L7.24 5.60L7.24 5.60Q6.45 5.14 5.73 4.93L5.73 4.93L5.73 4.93Q5.00 4.72 4.21 4.72L4.21 4.72L4.21 4.72Q3.30 4.72 2.77 5.05L2.77 5.05L2.77 5.05Q2.23 5.39 2.23 6.09L2.23 6.09L2.23 6.09Q2.23 6.57 2.47 6.87L2.47 6.87L2.47 6.87Q2.72 7.18 3.18 7.40L3.18 7.40L3.18 7.40Q3.64 7.62 4.47 7.87L4.47 7.87L4.47 7.87Q6.12 8.37 6.93 9.06L6.93 9.06L6.93 9.06Q7.74 9.76 7.74 10.98L7.74 10.98L7.74 10.98Q7.74 12.26 6.78 12.98L6.78 12.98L6.78 12.98Q5.81 13.71 3.92 13.71L3.92 13.71ZM12.52 6.51L12.52 6.51Q13.43 6.51 14.11 6.98L14.11 6.98L14.11 6.98Q14.78 7.45 15.15 8.26L15.15 8.26L15.15 8.26Q15.51 9.07 15.51 10.08L15.51 10.08L15.51 10.08Q15.51 11.10 15.17 11.91L15.17 11.91L15.17 11.91Q14.83 12.71 14.15 13.18L14.15 13.18L14.15 13.18Q13.48 13.65 12.52 13.65L12.52 13.65L12.52 13.65Q11.80 13.65 11.21 13.40L11.21 13.40L11.21 13.40Q10.63 13.15 10.29 12.67L10.29 12.67L10.29 16.90L9.03 16.90L9.03 6.65L10.01 6.65L10.15 7.60L10.15 7.60Q11.02 6.51 12.52 6.51L12.52 6.51ZM12.28 12.53L12.28 12.53Q13.19 12.53 13.71 11.88L13.71 11.88L13.71 11.88Q14.22 11.23 14.22 10.08L14.22 10.08L14.22 10.08Q14.22 8.93 13.71 8.28L13.71 8.28L13.71 8.28Q13.19 7.63 12.28 7.63L12.28 7.63L12.28 7.63Q11.38 7.63 10.80 8.26L10.80 8.26L10.80 8.26Q10.22 8.89 10.22 10.08L10.22 10.08L10.22 10.08Q10.22 11.31 10.79 11.92L10.79 11.92L10.79 11.92Q11.37 12.53 12.28 12.53L12.28 12.53ZM19.82 13.65L19.82 13.65Q18.77 13.65 18.00 13.18L18.00 13.18L18.00 13.18Q17.23 12.71 16.83 11.90L16.83 11.90L16.83 11.90Q16.42 11.09 16.42 10.08L16.42 10.08L16.42 10.08Q16.42 9.07 16.83 8.26L16.83 8.26L16.83 8.26Q17.23 7.45 18.00 6.98L18.00 6.98L18.00 6.98Q18.77 6.51 19.82 6.51L19.82 6.51L19.82 6.51Q20.86 6.51 21.64 6.98L21.64 6.98L21.64 6.98Q22.41 7.45 22.82 8.26L22.82 8.26L22.82 8.26Q23.23 9.07 23.23 10.08L23.23 10.08L23.23 10.08Q23.23 11.09 22.82 11.90L22.82 11.90L22.82 11.90Q22.41 12.71 21.64 13.18L21.64 13.18L21.64 13.18Q20.86 13.65 19.82 13.65L19.82 13.65ZM19.82 12.53L19.82 12.53Q20.83 12.53 21.39 11.89L21.39 11.89L21.39 11.89Q21.94 11.24 21.94 10.08L21.94 10.08L21.94 10.08Q21.94 8.92 21.39 8.27L21.39 8.27L21.39 8.27Q20.83 7.63 19.82 7.63L19.82 7.63L19.82 7.63Q18.82 7.63 18.26 8.27L18.26 8.27L18.26 8.27Q17.71 8.92 17.71 10.08L17.71 10.08L17.71 10.08Q17.71 11.24 18.26 11.89L18.26 11.89L18.26 11.89Q18.82 12.53 19.82 12.53L19.82 12.53ZM26.89 13.65L26.89 13.65Q25.98 13.65 25.54 13.17L25.54 13.17L25.54 13.17Q25.10 12.70 25.10 12.01L25.10 12.01L25.10 7.63L23.93 7.63L24.04 6.65L25.10 6.65L25.10 4.96L26.36 4.83L26.36 6.65L28.17 6.65L28.17 7.63L26.36 7.63L26.36 11.24L26.36 11.24Q26.36 11.96 26.45 12.22L26.45 12.22L26.45 12.22Q26.53 12.49 26.80 12.56L26.80 12.56L26.80 12.56Q27.08 12.64 27.80 12.64L27.80 12.64L28.13 12.64L28.03 13.65L26.89 13.65ZM29.25 5.11L29.25 3.71L30.51 3.71L30.51 5.11L29.25 5.11ZM29.25 13.51L29.25 6.65L30.51 6.65L30.51 13.51L29.25 13.51ZM35.59 6.51L35.59 6.51Q36.51 6.51 37.22 7L37.22 7L37.22 7Q37.93 7.49 38.30 8.31L38.30 8.31L38.30 8.31Q38.68 9.13 38.68 10.08L38.68 10.08L38.68 10.08Q38.68 11.06 38.27 11.88L38.27 11.88L38.27 11.88Q37.86 12.70 37.15 13.17L37.15 13.17L37.15 13.17Q36.44 13.65 35.59 13.65L35.59 13.65L35.59 13.65Q34.96 13.65 34.37 13.39L34.37 13.39L34.37 13.39Q33.78 13.13 33.46 12.67L33.46 12.67L33.32 13.51L32.20 13.51L32.20 3.01L33.46 3.01L33.46 7.45L33.46 7.45Q33.84 7.01 34.41 6.76L34.41 6.76L34.41 6.76Q34.97 6.51 35.59 6.51L35.59 6.51ZM35.43 12.53L35.43 12.53Q36.32 12.53 36.85 11.82L36.85 11.82L36.85 11.82Q37.39 11.12 37.39 10.08L37.39 10.08L37.39 10.08Q37.39 9.02 36.85 8.32L36.85 8.32L36.85 8.32Q36.32 7.63 35.43 7.63L35.43 7.63L35.43 7.63Q34.57 7.63 33.98 8.27L33.98 8.27L33.98 8.27Q33.39 8.90 33.39 10.08L33.39 10.08L33.39 10.08Q33.39 11.30 33.97 11.91L33.97 11.91L33.97 11.91Q34.55 12.53 35.43 12.53L35.43 12.53ZM39.98 13.51L39.98 6.65L41.02 6.65L41.17 7.78L41.17 7.78Q41.71 7.13 42.19 6.82L42.19 6.82L42.19 6.82Q42.67 6.51 43.20 6.51L43.20 6.51L43.20 6.51Q43.37 6.51 43.53 6.55L43.53 6.55L43.40 7.94L43.40 7.94Q43.22 7.90 42.98 7.90L42.98 7.90L42.98 7.90Q42.46 7.90 42 8.13L42 8.13L42 8.13Q41.54 8.36 41.33 8.67L41.33 8.67L41.33 13.51L39.98 13.51ZM47.40 13.65L47.40 13.65Q46.35 13.65 45.58 13.18L45.58 13.18L45.58 13.18Q44.81 12.71 44.41 11.90L44.41 11.90L44.41 11.90Q44.00 11.09 44.00 10.08L44.00 10.08L44.00 10.08Q44.00 9.07 44.41 8.26L44.41 8.26L44.41 8.26Q44.81 7.45 45.58 6.98L45.58 6.98L45.58 6.98Q46.35 6.51 47.40 6.51L47.40 6.51L47.40 6.51Q48.44 6.51 49.22 6.98L49.22 6.98L49.22 6.98Q49.99 7.45 50.40 8.26L50.40 8.26L50.40 8.26Q50.81 9.07 50.81 10.08L50.81 10.08L50.81 10.08Q50.81 11.09 50.40 11.90L50.40 11.90L50.40 11.90Q49.99 12.71 49.22 13.18L49.22 13.18L49.22 13.18Q48.44 13.65 47.40 13.65L47.40 13.65ZM47.40 12.53L47.40 12.53Q48.41 12.53 48.97 11.89L48.97 11.89L48.97 11.89Q49.52 11.24 49.52 10.08L49.52 10.08L49.52 10.08Q49.52 8.92 48.97 8.27L48.97 8.27L48.97 8.27Q48.41 7.63 47.40 7.63L47.40 7.63L47.40 7.63Q46.40 7.63 45.84 8.27L45.84 8.27L45.84 8.27Q45.29 8.92 45.29 10.08L45.29 10.08L45.29 10.08Q45.29 11.24 45.84 11.89L45.84 11.89L45.84 11.89Q46.40 12.53 47.40 12.53L47.40 12.53Z"></path></g><defs data-v-423bf9ae=""><linearGradient data-v-423bf9ae="" gradientTransform="rotate(25)" id="4900e490-80a5-4f6c-8528-a4a2a0fba433" x1="0%" y1="0%" x2="100%" y2="0%"><stop data-v-423bf9ae="" offset="0%" style="stop-color: rgb(184, 41, 73); stop-opacity: 1;"></stop><stop data-v-423bf9ae="" offset="100%" style="stop-color: rgb(233, 184, 76); stop-opacity: 1;"></stop></linearGradient></defs><g data-v-423bf9ae="" id="68a4c500-9ec7-4dc2-a815-a5ef2f1a4ff8" transform="matrix(1.4339658604563414,0,0,1.4339658604563414,-25.100615872688053,-27.33040828649949)" stroke="none" fill="url(#4900e490-80a5-4f6c-8528-a4a2a0fba433)"><path d="M74.245 21.972a2.75 2.75 0 0 0-2.75-2.749l-36.412-.027a2.748 2.748 0 0 0-2.748 2.749v37.964a11.133 11.133 0 0 0-2.979-.399c-6.198 0-11.222 5.024-11.222 11.223 0 6.199 5.024 11.226 11.222 11.226 6.046 0 11.215-4.677 11.215-10.769.007-.073.022-30.853.022-30.853a1.445 1.445 0 0 1 1.445-1.429l-.001-.001 22.602.01A1.442 1.442 0 0 1 66 40.355l.005-.017v17.051a11.16 11.16 0 0 0-2.978-.397c-6.198 0-11.226 5.022-11.226 11.223 0 6.198 5.025 11.226 11.226 11.226 6.045 0 10.974-4.78 11.214-10.769.007-.074.004-46.7.004-46.7z"></path></g><!----></svg>