<?xml version="1.0" encoding="UTF-8" standalone="no"?>
<svg
   xmlns:dc="http://purl.org/dc/elements/1.1/"
   xmlns:cc="http://creativecommons.org/ns#"
   xmlns:rdf="http://www.w3.org/1999/02/22-rdf-syntax-ns#"
   xmlns:svg="http://www.w3.org/2000/svg"
   xmlns="http://www.w3.org/2000/svg"
   xmlns:sodipodi="http://sodipodi.sourceforge.net/DTD/sodipodi-0.dtd"
   xmlns:inkscape="http://www.inkscape.org/namespaces/inkscape"
   width="100mm"
   height="100mm"
   viewBox="0 0 100 99.999998"
   version="1.1"
   id="svg8"
   inkscape:version="1.0.1 (3bc2e813f5, 2020-09-07)"
   inkscape:export-filename="C:\Users\iwill\source\repos\SpotSync\SpotSync\wwwroot\assets\unknown-album-art.png"
   inkscape:export-xdpi="96"
   inkscape:export-ydpi="96"
   sodipodi:docname="drawing.svg">
  <defs
     id="defs2" />
  <sodipodi:namedview
     id="base"
     pagecolor="#ffffff"
     bordercolor="#666666"
     borderopacity="1.0"
     inkscape:pageopacity="0.0"
     inkscape:pageshadow="2"
     inkscape:zoom="1"
     inkscape:cx="362.99206"
     inkscape:cy="179.37184"
     inkscape:document-units="mm"
     inkscape:current-layer="layer1"
     inkscape:document-rotation="0"
     showgrid="false"
     showguides="true"
     inkscape:guide-bbox="true"
     fit-margin-top="0"
     fit-margin-left="0"
     fit-margin-right="0"
     fit-margin-bottom="0"
     inkscape:window-width="1920"
     inkscape:window-height="1025"
     inkscape:window-x="-8"
     inkscape:window-y="-8"
     inkscape:window-maximized="1">
    <sodipodi:guide
       position="155.0489,206.2667"
       orientation="0,-1"
       id="guide1467" />
  </sodipodi:namedview>
  <metadata
     id="metadata5">
    <rdf:RDF>
      <cc:Work
         rdf:about="">
        <dc:format>image/svg+xml</dc:format>
        <dc:type
           rdf:resource="http://purl.org/dc/dcmitype/StillImage" />
        <dc:title></dc:title>
      </cc:Work>
    </rdf:RDF>
  </metadata>
  <g
     inkscape:label="Layer 1"
     inkscape:groupmode="layer"
     id="layer1"
     transform="translate(-42.890915,-90.364761)">
    <rect
       style="fill:#ececec;fill-opacity:1;stroke-width:0.366899"
       id="rect1425"
       width="100"
       height="100"
       x="42.890915"
       y="90.364761"
       inkscape:export-xdpi="96"
       inkscape:export-ydpi="96" />
    <path
       id="path1429"
       style="fill:#999999;fill-opacity:1;stroke:none;stroke-width:0.231;stroke-miterlimit:4;stroke-dasharray:none"
       d="m 73.267733,107.26292 v 1.87586 h -0.001 v 43.98491 a 12.5,12.5 0 0 0 -6.482808,-1.81281 12.5,12.5 0 0 0 -12.500014,12.50001 12.5,12.5 0 0 0 12.500014,12.50002 12.5,12.5 0 0 0 12.500012,-12.50002 12.5,12.5 0 0 0 -0.02222,-0.74 v -50.63722 h 41.048653 v 40.68382 a 12.5,12.5 0 0 0 -6.44922,-1.79266 12.5,12.5 0 0 0 -12.50001,12.50001 12.5,12.5 0 0 0 12.50001,12.50002 12.5,12.5 0 0 0 12.50002,-12.50002 12.5,12.5 0 0 0 -0.0512,-1.12964 v -50.26153 -5.17075 h -5.99964 z"
       inkscape:export-xdpi="96"
       inkscape:export-ydpi="96" />
  </g>
</svg>
